<svg width="17" height="16" viewBox="0 0 17 16" fill="none" xmlns="http://www.w3.org/2000/svg">
<path d="M8.48416 11.9208L11.6364 13.9179C12.0393 14.1732 12.5396 13.7935 12.42 13.3232L11.5093 9.74052C11.4836 9.64073 11.4867 9.53573 11.518 9.4376C11.5494 9.33946 11.6078 9.25218 11.6866 9.18577L14.5133 6.83306C14.8847 6.52392 14.693 5.90751 14.2158 5.87654L10.5243 5.63696C10.4249 5.62986 10.3296 5.59465 10.2494 5.53545C10.1692 5.47625 10.1074 5.39548 10.0714 5.30255L8.69458 1.83549C8.65716 1.73685 8.59061 1.65194 8.50379 1.59201C8.41696 1.53209 8.31396 1.5 8.20847 1.5C8.10297 1.5 7.99997 1.53209 7.91315 1.59201C7.82632 1.65194 7.75978 1.73685 7.72235 1.83549L6.34558 5.30255C6.30951 5.39548 6.24778 5.47625 6.16758 5.53545C6.08738 5.59465 5.99202 5.62986 5.89259 5.63696L2.20109 5.87654C1.7239 5.90751 1.5322 6.52392 1.90361 6.83306L4.73032 9.18577C4.8091 9.25218 4.86753 9.33946 4.8989 9.4376C4.93028 9.53573 4.93331 9.64073 4.90767 9.74052L4.06306 13.063C3.91958 13.6274 4.5199 14.083 5.00342 13.7767L7.93278 11.9208C8.01516 11.8683 8.1108 11.8405 8.20847 11.8405C8.30613 11.8405 8.40177 11.8683 8.48416 11.9208V11.9208Z" stroke="#FF8700" stroke-linecap="round" stroke-linejoin="round"/>
</svg>
