<svg width="17" height="16" viewBox="0 0 17 16" fill="none" xmlns="http://www.w3.org/2000/svg">
<path d="M6.97067 3.5V12.5" stroke="#EEEEEE" stroke-linecap="round" stroke-linejoin="round"/>
<path d="M2.47067 10.4494C2.47065 10.3342 2.51046 10.2225 2.58335 10.1334C2.65624 10.0442 2.75773 9.98292 2.87062 9.96C3.32233 9.86772 3.72831 9.62224 4.01987 9.26509C4.31143 8.90794 4.47067 8.46104 4.47067 8C4.47067 7.53896 4.31143 7.09206 4.01987 6.73491C3.72831 6.37776 3.32233 6.13228 2.87062 6.04C2.75773 6.01708 2.65624 5.95584 2.58335 5.86664C2.51046 5.77745 2.47065 5.6658 2.47067 5.55061V4C2.47067 3.86739 2.52335 3.74021 2.61712 3.64645C2.71089 3.55268 2.83806 3.5 2.97067 3.5H14.9707C15.1033 3.5 15.2305 3.55268 15.3242 3.64645C15.418 3.74021 15.4707 3.86739 15.4707 4V5.55061C15.4707 5.6658 15.4309 5.77745 15.358 5.86665C15.2851 5.95584 15.1836 6.01708 15.0707 6.04C14.619 6.13229 14.213 6.37777 13.9215 6.73492C13.6299 7.09207 13.4707 7.53896 13.4707 8C13.4707 8.46105 13.6299 8.90794 13.9215 9.26509C14.213 9.62224 14.619 9.86772 15.0707 9.96001C15.1836 9.98292 15.2851 10.0442 15.358 10.1334C15.4309 10.2225 15.4707 10.3342 15.4707 10.4494V12C15.4707 12.1326 15.418 12.2598 15.3242 12.3536C15.2305 12.4473 15.1033 12.5 14.9707 12.5H2.97067C2.83806 12.5 2.71089 12.4473 2.61712 12.3536C2.52335 12.2598 2.47067 12.1326 2.47067 12V10.4494Z" stroke="#EEEEEE" stroke-linecap="round" stroke-linejoin="round"/>
</svg>
